<svg width="25" height="24" viewBox="0 0 25 24" fill="none" xmlns="http://www.w3.org/2000/svg">
    <path d="M14.534 10.0907C15.5884 11.1452 15.5884 12.8547 14.534 13.9091C13.4796 14.9635 11.77 14.9635 10.7156 13.9091C9.6612 12.8547 9.6612 11.1452 10.7156 10.0907C11.77 9.03632 13.4796 9.03632 14.534 10.0907" stroke="#BDBDBD" stroke-width="1.5" stroke-linecap="round" stroke-linejoin="round"/>
    <path d="M5.87536 12C5.87536 12.297 5.90236 12.594 5.93836 12.882L4.35036 14.124C3.99836 14.4 3.90236 14.893 4.12636 15.28L5.53836 17.723C5.76136 18.11 6.23536 18.273 6.65036 18.107L8.07236 17.536C8.35336 17.423 8.66636 17.468 8.91836 17.635C9.13836 17.781 9.36636 17.915 9.60236 18.035C9.87236 18.172 10.0684 18.417 10.1114 18.717L10.3284 20.23C10.3914 20.672 10.7704 21 11.2164 21H14.0334C14.4794 21 14.8584 20.672 14.9214 20.23L15.1384 18.718C15.1814 18.418 15.3794 18.171 15.6504 18.035C15.8854 17.917 16.1124 17.784 16.3314 17.639C16.5854 17.471 16.8994 17.423 17.1814 17.537L18.6004 18.107C19.0144 18.273 19.4884 18.11 19.7124 17.723L21.1244 15.28C21.3484 14.893 21.2524 14.399 20.9004 14.124L19.3124 12.882C19.3484 12.594 19.3754 12.297 19.3754 12C19.3754 11.703 19.3484 11.406 19.3124 11.118L20.9004 9.876C21.2524 9.6 21.3484 9.107 21.1244 8.72L19.7124 6.277C19.4894 5.89 19.0154 5.727 18.6004 5.893L17.1814 6.463C16.8994 6.576 16.5854 6.529 16.3314 6.361C16.1124 6.216 15.8854 6.083 15.6504 5.965C15.3794 5.829 15.1814 5.582 15.1384 5.282L14.9224 3.77C14.8594 3.328 14.4804 3 14.0344 3H11.2174C10.7714 3 10.3924 3.328 10.3294 3.77L10.1114 5.284C10.0684 5.583 9.87136 5.829 9.60236 5.966C9.36636 6.086 9.13836 6.221 8.91836 6.366C8.66536 6.532 8.35236 6.577 8.07136 6.464L6.65036 5.893C6.23536 5.727 5.76136 5.89 5.53836 6.277L4.12636 8.72C3.90236 9.107 3.99836 9.601 4.35036 9.876L5.93836 11.118C5.90236 11.406 5.87536 11.703 5.87536 12V12Z" stroke="#BDBDBD" stroke-width="1.5" stroke-linecap="round" stroke-linejoin="round"/>
</svg>
